# xmcd
#
# Track frame offsets:
#   150
#   20850
#   41520
#   57406
#   70535
#   98433
#   120536
#   146102
#   180915
#   197265
#   219613
#   233263
#
# Disc length: 3657 seconds
#
# Revision: 0
# Processed by: cddbd v1.5.2PL0 Copyright (c) Steve Scherf et al.
# Submitted via: GXTranscoder 2.0.1939
#
DISCID=980e470c
DTITLE=MIB AND RMF - Knowledges
DYEAR=1999
DGENRE=R and B
TTITLE0=Ich Glaub Ich Spinne
TTITLE1=Turn Up The Music
TTITLE2=Der Job
TTITLE3=Inside Me
TTITLE4=Die Zeit Die Kennt Kein Hindernis
TTITLE5=Get It Round
TTITLE6=Stell Dir Vor Du Wärst Ein Meteor
TTITLE7=Gagamagenaje
TTITLE8=Dancing Devil
TTITLE9=Sweet Cycle
TTITLE10=Thinking Of You
TTITLE11=You Can't Always Get Ahat You Want
EXTD=
EXTT0=
EXTT1=
EXTT2=
EXTT3=
EXTT4=
EXTT5=
EXTT6=
EXTT7=
EXTT8=
EXTT9=
EXTT10=
EXTT11=
PLAYORDER=
